<?xml version="1.0" standalone="no"?>
<!DOCTYPE svg PUBLIC "-//W3C//DTD SVG 20010904//EN"
 "http://www.w3.org/TR/2001/REC-SVG-20010904/DTD/svg10.dtd">
<svg version="1.0" xmlns="http://www.w3.org/2000/svg"
 width="512.000000pt" height="512.000000pt" viewBox="0 0 512.000000 512.000000"
 preserveAspectRatio="xMidYMid meet">
<metadata>
Created by potrace 1.14, written by Peter Selinger 2001-2017
</metadata>
<g transform="translate(0.000000,512.000000) scale(0.100000,-0.100000)"
fill="#000000" stroke="none">
<path d="M3585 5106 c-59 -22 -94 -46 -128 -88 -66 -82 -87 -149 -82 -258 8
-181 103 -290 481 -553 l81 -56 134 95 c254 182 335 257 387 363 35 71 37 81
37 170 0 83 -4 104 -26 152 -80 171 -236 230 -399 153 -36 -17 -78 -43 -95
-58 -16 -14 -34 -26 -38 -26 -5 0 -27 15 -50 34 -73 58 -121 77 -212 81 -33 1
-73 -2 -90 -9z"/>
<path d="M2480 4347 c-84 -79 -291 -271 -321 -298 -13 -11 -53 -48 -89 -82
-62 -58 -248 -230 -315 -291 -16 -15 -77 -71 -134 -124 -57 -54 -118 -110
-135 -126 -55 -50 -140 -129 -259 -240 -65 -60 -126 -116 -136 -125 -15 -14
-134 -123 -255 -236 -18 -16 -82 -75 -141 -130 -60 -55 -125 -115 -144 -134
-20 -18 -81 -74 -135 -125 -55 -50 -115 -106 -135 -124 -19 -18 -75 -70 -125
-115 -111 -102 -116 -107 -116 -115 0 -4 173 -7 384 -7 336 0 385 -2 388 -15
2 -8 3 -475 3 -1037 l-1 -1023 1726 0 1726 0 -1 1035 c0 681 3 1036 10 1038 6
2 189 3 408 3 218 -1 397 2 397 5 0 6 -117 116 -264 250 -33 30 -67 61 -76 69
-9 8 -61 56 -115 105 -55 50 -112 101 -126 115 -30 29 -181 166 -213 193 -20
18 -20 24 -20 505 0 268 -3 489 -7 492 -4 3 -155 5 -336 5 l-328 -1 -5 -176
-5 -176 -65 60 c-100 92 -298 276 -370 344 -80 74 -165 152 -206 190 -47 43
-240 223 -314 292 -36 34 -69 61 -75 61 -5 1 -39 -27 -75 -62z m-318 -1687
c119 -31 233 -93 346 -188 56 -48 54 -48 107 2 35 33 168 117 223 142 185 82
354 85 510 8 179 -88 320 -294 350 -512 10 -71 9 -214 -2 -262 -4 -14 -8 -34
-10 -45 -8 -38 -56 -157 -92 -225 -54 -103 -204 -252 -444 -442 -100 -79 -396
-292 -517 -373 l-72 -47 -78 53 c-570 387 -871 644 -963 820 -81 155 -111 280
-105 434 7 200 73 354 209 491 76 76 181 136 266 153 71 14 199 10 272 -9z"/>
</g>
</svg>
